<?xml version="1.0" encoding="utf-8"?>
<!-- Generator: Adobe Illustrator 23.0.1, SVG Export Plug-In . SVG Version: 6.00 Build 0)  -->
<svg version="1.1" id="Layer_1" xmlns="http://www.w3.org/2000/svg" xmlns:xlink="http://www.w3.org/1999/xlink" x="0px" y="0px"
	 viewBox="0 0 538.4 165.1" style="enable-background:new 0 0 538.4 165.1;" xml:space="preserve">
<style type="text/css">
	.st0{fill:#FFFFFF;}
	.st1{fill:#E40046;}
	.st2{fill:#FFEF42;}
</style>
<g>
	<path class="st0" d="M189.4,41.6h9.2c10.2,0,17.6-6.4,17.6-15.2s-7.4-15.2-17.5-15.2h-16.9v43.4h7.6V41.6z M189.4,17.8h8.1
		c6.4,0,10.9,3.5,10.9,8.6c0,2-0.7,3.9-2.2,5.4c-2,2-5.1,3.1-8.7,3.1h-8.1V17.8z"/>
	<path class="st0" d="M231.3,37.5c0-5.3,2.9-9,7-9c1.2,0,3,0.2,4.7,0.9l0.4,0.2v-6.5l-0.2-0.1c-1.4-0.5-2.8-0.8-4-0.8
		c-3.2,0-6.1,1.5-8.1,4.3v-3.2h-6.9v31.3h7.2V37.5z"/>
	<rect x="250.8" y="23.3" class="st0" width="7.1" height="31.3"/>
	<path class="st0" d="M254.3,18.9c2.5,0,4.4-1.8,4.4-4.4c0-2.5-1.8-4.2-4.4-4.2c-2.6,0-4.4,1.8-4.4,4.2
		C249.9,17.1,251.8,18.9,254.3,18.9z"/>
	<path class="st0" d="M310.2,54.6h7.1V35.8c0-8-5.2-13.6-12.6-13.6c-4.3,0-8.1,2-10.4,5.5c-2-3.4-6-5.5-10.6-5.5
		c-3.4,0-6.5,1.5-8.5,4.1v-2.9h-6.9v31.3h7.2V36.3c0-4.6,2.8-7.7,7-7.7c4,0,6.7,3,6.7,7.7v18.3h7.2V36.3c0-4.5,3-7.7,7.1-7.7
		c4,0.1,6.8,3.2,6.8,7.7V54.6z"/>
	<path class="st0" d="M341.2,55.8c4.5,0,8.4-1.8,11.1-5.2v4h7.2V23.3h-7.2v4c-2.7-3.4-6.7-5.2-11.1-5.2c-9.1,0-15.7,7.1-15.7,16.9
		S332.1,55.8,341.2,55.8z M342.5,49.4c-5.7,0-9.9-4.4-9.9-10.4s4.1-10.4,9.9-10.4c5.7,0,9.8,4.4,9.8,10.4S348.2,49.4,342.5,49.4z"/>
	<path class="st0" d="M376.8,37.5c0-5.3,2.9-9,7-9c1.2,0,3,0.2,4.7,0.9l0.4,0.2v-6.5l-0.2-0.1c-1.4-0.5-2.8-0.8-4-0.8
		c-3.2,0-6.1,1.5-8.1,4.3v-3.2h-6.9v31.3h7.2V37.5z"/>
	<path class="st0" d="M420,23.3l-8.2,22.2l-9.4-22.2h-7.9l14,31.2c-0.1,0.3-0.3,0.6-0.4,0.9c-1.4,3.5-2.7,6.8-6.4,6.8
		c-1.1,0-2.5-0.3-4-0.8l-0.4-0.1v5.9l0.2,0.1c1.6,0.7,3.6,1.1,5.5,1.1c6.7,0,9.5-6,12.2-13.1l12.2-31.9H420z"/>
	<path class="st0" d="M196.7,75.7h-14.9v43.4h14.9c15,0,25.1-8.7,25.1-21.7C221.8,84.4,211.7,75.7,196.7,75.7z M196.7,112.5h-7.1
		V82.3h7.1c10.5,0,17.2,5.9,17.2,15.1S207.1,112.5,196.7,112.5z"/>
	<path class="st0" d="M254.2,109.8c-1.5,2.6-4.8,4.4-8.2,4.4c-4.8,0-8.4-3.3-9.3-8.5l25.8,0.1l0-0.3c0.1-1,0.1-1.8,0.1-2.4
		c0-9.6-7-16.6-16.6-16.6c-9.7,0-16.8,6.9-16.8,16.5c0,10,7.1,17.2,16.8,17.2c7.1,0,13.5-4.4,15.4-10.5H254.2z M245.8,92.7
		c4.8,0,8.5,3.1,9.3,7.6h-18.4C237.7,95.7,241.2,92.7,245.8,92.7z"/>
	<path class="st0" d="M286.1,86.6c-9.6,0-16.5,7.1-16.5,16.9s7,16.9,16.6,16.9c7.7,0,14.2-4.9,15.6-11.7h-7.2
		c-1.4,3.3-4.6,5.5-8.4,5.5c-5.4,0-9.4-4.5-9.4-10.7c0-6.1,4.1-10.7,9.4-10.7c3.7,0,7,2.3,8.3,5.6h7.2
		C300.5,91.5,294,86.6,286.1,86.6z"/>
	<path class="st0" d="M325.6,86.6c-10,0-17,6.9-17,16.9s7,16.9,17,16.9s17-6.9,17-16.9S335.6,86.6,325.6,86.6z M325.6,113.9
		c-5.8,0-9.8-4.3-9.8-10.4s4-10.4,9.8-10.4c5.7,0,9.9,4.4,9.9,10.4S331.3,113.9,325.6,113.9z"/>
	<path class="st0" d="M366.1,86.7c-3.2,0-6.1,1.5-8.1,4.3v-3.2h-6.9v31.3h7.2V102c0-5.3,2.9-9,7-9c1.2,0,3,0.2,4.7,0.9l0.4,0.2v-6.5
		l-0.2-0.1C368.7,87,367.3,86.7,366.1,86.7z"/>
	<path class="st0" d="M402.5,91.8c-2.7-3.4-6.7-5.2-11.1-5.2c-9.1,0-15.7,7.1-15.7,16.9s6.6,16.9,15.7,16.9c4.5,0,8.4-1.8,11.1-5.2
		v4h7.2V87.8h-7.2V91.8z M392.6,113.9c-5.7,0-9.9-4.4-9.9-10.4s4.1-10.4,9.9-10.4c5.7,0,9.8,4.4,9.8,10.4S398.3,113.9,392.6,113.9z"
		/>
	<path class="st0" d="M433.2,114.2c-2.5,0-4.2-1.7-4.2-4.4V93.5h7.5v-5.7H429v-7.4H423l-0.8,7.4h-5.1v5.7h4.7v16.6
		c0,6.1,3.8,10.2,9.4,10.2c1.9,0,4-0.3,5.5-0.9l0.2-0.1v-5.9l-0.4,0.1C435.4,114,434,114.2,433.2,114.2z"/>
	<path class="st0" d="M459.4,86.6c-10,0-17,6.9-17,16.9s7,16.9,17,16.9c10,0,17-6.9,17-16.9S469.4,86.6,459.4,86.6z M459.4,113.9
		c-5.8,0-9.8-4.3-9.8-10.4s4-10.4,9.8-10.4c5.7,0,9.9,4.4,9.9,10.4S465.1,113.9,459.4,113.9z"/>
	<path class="st0" d="M500,86.7c-3.2,0-6.1,1.5-8.1,4.3v-3.2H485v31.3h7.2V102c0-5.3,2.9-9,7-9c1.2,0,3,0.2,4.7,0.9l0.4,0.2v-6.5
		l-0.2-0.1C502.5,87,501.1,86.7,500,86.7z"/>
	<path class="st0" d="M524.7,100.1c-4.9-0.8-7-1.5-7-3.6c0-2.2,2.6-4,5.8-4c4.3,0,7.3,2,7.4,4.9l0,0.3h6.7v-0.3
		c0-6.3-5.9-10.8-14-10.8c-7.2,0-12.6,4.3-12.6,10c0,7.7,6,8.6,12.9,9.6c2.5,0.3,7.6,1,7.6,4.1c0,0.8-0.3,1.6-0.9,2.2
		c-1.2,1.2-3.3,1.9-5.8,1.9c-4.4,0-7.6-2.5-7.6-6v-0.3h-6.6v0.3c0,6.9,6,12,14.3,12c7.9,0,13.7-4.6,13.7-10.8
		C538.4,102.3,530.5,101,524.7,100.1z"/>
</g>
<path class="st1" d="M86.8,0H42.7c26.2,0,47.5,21.3,47.5,47.5c0,0.2,0,0.4,0,0.7l0,0v63.3l0.1,1.4v9.1c32-1.8,57.5-28.5,57.5-61
	C147.9,27.4,120.5,0,86.8,0z"/>
<path class="st2" d="M90.3,47.5C90.3,21.3,68.9,0,42.7,0H0v122.1h26.9V113H9.1V9.1h33.6c21.2,0,38.4,17.2,38.4,38.4
	C81.1,68.7,63.9,86,42.7,86h-4.4v79.1h4.4c26.2,0,47.5-21.3,47.5-47.5V48.2l0,0C90.2,48,90.3,47.8,90.3,47.5z"/>
</svg>
